# xmcd
#
# Track frame offsets: 
#        150
#        15370
#        34482
#        52950
#        72385
#        89977
#        110282
#        129652
#        147170
#        165680
#        189885
#        206485
#        222917
#
# Disc length: 3187 seconds
#
# Revision: 3
# Processed by: cddbd v1.4PL0 Copyright (c) Steve Scherf et al.
# Submitted via: ExactAudioCopy v0.90b4
#
DISCID=bc0c710d
DTITLE=Bonepony - Traveler's Companion
DYEAR=1999
DGENRE=
TTITLE0=Mountainside
TTITLE1=Antidote
TTITLE2=Cowboy Song
TTITLE3=The Crush
TTITLE4=Knees
TTITLE5=Voodoo Banjo
TTITLE6=Sweet Bye And By
TTITLE7=Fish In The Sea
TTITLE8=East Texas Rhythm
TTITLE9=Eyes Wide Open
TTITLE10=Savanna Flowers
TTITLE11=Salvation Song
TTITLE12=Shine On
EXTD=
EXTT0=
EXTT1=
EXTT2=
EXTT3=
EXTT4=
EXTT5=
EXTT6=
EXTT7=
EXTT8=
EXTT9=
EXTT10=
EXTT11=
EXTT12=
PLAYORDER=
